<svg fill="none" height="110" viewBox="0 0 300 117" width="100" xmlns="http://www.w3.org/2000/svg"><path clip-rule="evenodd" d="m167.242 3.34233c4.838 0 6.825 4.55771 6.825 5.72636-2.774 0-6.665 10.02191-17.354 37.55711l-.082.2135c-10.729 27.6268-17.016 40.2248-21.784 40.2248-7.222 0-10.705-19.1191-10.681-42.1414 0-9.5829 4.791-37.44337 11.219-43.8008.677-.677814 3.926-1.12189658 4.955-1.12189658 2.314 0 3.389.58432258 3.389.58432258s-11.406 19.142374-11.406 57.707674c0 7.0119.818 20.0773 2.805 20.0773 3.224 0 8.959-17.3351 14.917-35.3401v-.0002c6.436-19.4524 13.131-39.68667 17.197-39.68667zm-106.5105 5.07193c2.6645 3.57604-.4441 6.98844-.4441 6.98844-1.8698-1.8932-13.1823.7012-25.3596 4.324-.4519 3.3079-1.8543 9.4815-4.3696 20.5534v.0001.0002l-.0002.0006-.0003.0016-.0007.0029c-.7368 3.2432-1.569 6.9067-2.5008 11.0414-2.0101 8.9518-6.1471 25.8972-6.1471 25.8972s-1.0985 1.0518-3.6695.374c-.6399-.1668-1.2172-.5166-1.6614-1.0064-.4442-.4899-.7359-1.0986-.8395-1.7516 7.1521-28.3748 9.6764-46.6757 10.3542-52.3553-10.3776 3.3657-19.91373 6.8716-23.11582 8.3441 0 0-1.77634-.2805-2.594392-1.7296s-.070119-2.9216-.070119-2.9216c4.440851-3.132 56.749431-22.69513 60.418931-17.76344zm46.4335 49.10994c.325-.4495.527-.728 1.411-.728.865 0 .841 1.005.841 1.005 0 2.2438-12.6444 20.3578-26.5513 20.3578-1.7062 0-6.3341-.818-9.2323-4.5343-4.9317 2.8281-9.7699 4.6278-13.6031 4.6278-.818 0-5.5861-.4674-5.5861-6.6145 0-2.8563 1.2129-6.786 2.3937-10.612 2.0272-6.5684 3.96-12.831-.5005-12.831-5.516 0-12.2006 10.5411-12.2006 10.5411s-3.6228 14.1406-4.1137 18.488c0 0-.5609.7246-2.5242.7246-3.6228 0-4.1604-3.0385-4.1604-3.0385s11.0086-39.8742 11.0086-49.2c0-2.6411-.3973-3.0385-.3973-3.0385s3.763-1.7763 6.2639-1.7763 2.5477 1.8231 2.5477 3.4825c0 5.4459-6.5912 26.9724-6.5912 26.9724s6.3341-9.6998 14.4211-9.6998c6.708 0 5.8432 7.643 5.8432 7.643 0 4.3295-2.3038 10.1538-4.0853 14.6576-1.123 2.839-2.0384 5.1533-2.0384 6.2377 0 1.9166 1.6128 2.2906 2.2672 2.2906 2.3373 0 5.5627-1.192 8.9986-3.0619-.2746-1.1956-.4079-2.4194-.3974-3.6461 0-12.8785 11.7098-23.8638 19.6566-23.8638 6.1004 0 6.1471 4.6512 6.1471 4.9317 0 6.7314-8.2039 16.2676-17.5764 23.0691.9817 1.6595 2.8047 3.2021 6.4509 3.2021 7.9925 0 19.6686-13.6317 20.8856-15.0527.036-.0418.063-.073.08-.093.139-.1599.246-.3077.342-.4406zm-16.6096-8.5813c0-1.7997-.7246-2.3841-1.753-2.3841-4.2773 0-10.1205 8.3442-10.4477 18.3945 6.5444-4.955 12.2007-11.3826 12.2007-16.0104zm205.7746-.935c-2.109-.0035-4.15.7514-5.749 2.127 0 0 1.262 1.3556 1.262 4.4175 0 6.1237-9.326 20.1942-14.421 20.1942-1.192 0-3.366-.3974-3.366-4.6746 0-3.4169 1.584-7.7492 3.144-12.0156v-.0003c1.513-4.1384 3.003-8.2149 3.003-11.3337 0-1.7296-1.192-2.8047-4.113-2.8047-1.796.0205-3.548.5559-5.049 1.5426 0 0 .841.6778.841 2.2906 0 4.3473-1.355 8.9518-2.664 13.1589-1.169 3.763-9.069 13.7199-17.717 13.7199-4.721 0-6.591-2.4542-7.362-4.6045 10.588-6.9184 19.025-16.2441 19.025-22.9989 0-.3038-.046-5.1888-6.451-5.1888-8.344 0-20.638 11.5228-20.638 25.0324-.023 11.406 9.583 13.1122 12.271 13.1122 7.059 0 13.556-3.8799 18.581-8.3441.257 5.516 3.132 9.3725 9.49 9.3725 6.684 0 11.429-8.5778 11.429-8.5778l-10.892 40.0373s1.309 3.81 5.353 3.81c2.244 0 2.571-2.618 2.571-2.618 5.093-24.8941 10.682-45.4367 13.419-55.498 1.069-3.9286 1.703-6.2592 1.703-6.6267 0-1.3089-.117-3.5294-3.67-3.5294zm-41.744-1.2153c1.076 0 1.847.6077 1.847 2.5009 0 4.5343-5.493 10.5645-12.715 15.4728.771-9.9335 6.568-17.9737 10.868-17.9737zm-33.072-25.7313s1.753-5.2589-2.338-5.2589c-2.404-.0172-4.775.5695-6.895 1.7062 0 0 1.029 2.9918-1.636 13.8602-.674 2.7407-1.704 6.9605-2.87 11.7395-.773 3.1682-1.606 6.5822-2.435 9.9739-3.88 13.1122-11.57 19.4229-14.024 19.4229-2.805 0 .047-11.0087.047-11.0087l3.085-12.1539 1.893-7.4325s-1.706-2.6646-3.646-2.6646-2.454.7012-2.454.7012l-.935 3.6696-.004-.0037c-.109-.1173-2.701-2.8946-7.709-2.8946-8.905.0468-20.732 15.4028-20.732 26.9022 0 9.9101 5.493 12.0137 7.923 12.0137 3.717 0 9.864-2.197 15.59-9.1388.117 4.0202 1.122 7.0353 3.927 7.0353 4.651 0 9.022-3.0385 12.785-7.0119-.888 3.6228-1.449 5.9601-1.449 5.9601s.865 3.1086 3.669 3.1086c2.151 0 2.922-.748 2.922-.748l7.292-27.5122.024-.0701h-.024zm-34.429 31.3408c-.257 1.005-.56 2.2437-.864 3.5994-3.132 12.5746-10.284 16.2441-13.253 16.2441 0 0-3.623.2338-3.623-6.4509-.023-9.2089 8.485-20.3578 13.837-20.3578 1.898-.0182 3.739.6453 5.189 1.8698zm42.095-31.2964s3.319-1.6127 7.176-1.6127c3.856 0 2.197 4.9551 2.197 4.9551l-14.398 54.4355c-1.089.4284-2.243.6656-3.413.7012-2.641 0-3.459-2.9216-3.459-2.9216s7.9-32.2313 10.378-42.492c2.477-10.2607 1.519-13.0655 1.519-13.0655z" fill="#fdfaf6" fill-rule="evenodd"/></svg>